<svg width="277" height="517" viewBox="0 0 277 517" fill="none" xmlns="http://www.w3.org/2000/svg">
<path fill-rule="evenodd" clip-rule="evenodd" d="M83.0001 407L87.5001 399.5L85.0001 393.5L86.5001 388L92.0001 377.5L94.5001 370.5L95.5001 365.5L99.0001 360.5L98.5001 358.5L98.0001 356.5C96.5001 350.5 96.0001 343.5 96.5001 341C97.0001 338.5 97.5001 331 96.5001 327.5C95.7001 324.7 95.5001 313.333 95.5001 308C95.6667 304.167 96.3001 296 97.5001 294C98.7001 292 103.667 287.833 106 286C107.833 284.167 111.5 280.2 111.5 279C111.5 277.5 112 274 110 271.5C108 269 108.5 264.5 110 263L112.5 260.5C111.5 262.167 110.1 266.2 112.5 269C115.5 272.5 119 278 117 284C115 290 109 291.5 108 294C107 296.5 107.5 303 106 305.5C104.5 308 104 311.5 107 315.5C109.4 318.7 112.667 322.5 114 324C115 322.833 116.7 320.1 115.5 318.5C114 316.5 119.5 320.5 119 324C118.5 327.5 118 331 120 332.5C120.954 333.216 122.812 334.642 124 335.5L125.5 336.5L139.5 208C140 203.5 145.5 198 145.5 194C146 190 142.5 181.5 142.5 174C142.5 168 144.833 160.833 146 158.5C147.5 156.167 150.5 146 150 141C149.204 133.04 147 128.5 144 126.5C141.6 124.9 135.333 120.5 132.5 118.5L128.5 115.5V111.5L151 113L163.5 27.5C162.333 24 160.1 16.4 160.5 14C161 11 161 5.49996 165 2.99996C169 0.499963 171 -3.74615e-05 175 0.999963C179 1.99996 180.5 6 181 9.5C181.5 13 180.5 19 179 20.5C177.5 22 175 24.9999 175 27.5C175 29.5 174 30.3333 173.5 30.5L165 113L188 115.5V120C182.667 121.833 171.5 126.5 169.5 130.5C167 135.5 162.5 140.5 162 147.5C161.5 154.5 165 161 165 166C165 170 160.667 178 158.5 181.5C157.167 183.833 154.8 189.2 156 196C157.2 202.8 158 208 157.5 212L138.5 362C139 360.833 140.1 357.8 140.5 355C140.9 352.2 141.5 349.467 144.5 326.451C146.165 328.005 147.802 330.087 147.5 332.5C147.1 335.7 145 341.833 144 344.5C145.167 346.167 147.5 350.2 147.5 353V359L149 363.5L148 367V370.5L151 373.5H155L157.5 371.5C157.667 369.667 158.2 365.3 159 362.5C159.8 359.7 161 357.333 161.5 356.5C161.5 357.833 162.2 360.9 165 362.5C167.8 364.1 163.833 368.167 161.5 370C162.667 369.833 165 369.9 165 371.5C165 373.5 164.5 378 162.5 380C160.5 382 162.5 385 165 385.5C167.5 386 173.5 392 174 393.5C174.5 395 173 398.5 174 399.5C174.8 400.3 175.667 402.5 176 403.5L177 405H180H181L183 411V416L191 420L201 423.5C209 434.833 230.588 457.47 245 469C250 473 253.5 474.5 259 475.5L266.5 477.5L277 489.5C276.833 491.333 274.9 495.2 268.5 496C262.1 496.8 255.833 497 253.5 497H241H236L238 505L235 507H232.5H229C223 506.833 209.5 506.8 203.5 508C196 509.5 161 519 155 516.5C150.2 514.5 149 512.333 149 511.5L147.5 509L141.5 511.5H135C134.2 511.5 130.667 509.833 129 509C127.833 508.667 125.3 508 124.5 508C123.7 508 121.167 509.333 120 510L116 513C114.667 513.833 111.7 515.5 110.5 515.5H104.5H100.5C98.3334 515.167 93.8001 514.5 93.0001 514.5C92.2001 514.5 87.3334 514.131 85.0001 513.946L74.5001 511.5L70.0001 510C67.0001 509 65.0001 509 63.5001 509C62.3001 509 52.3334 507 47.5001 506H35.0001C33.4001 506 29.0001 505 27.0001 504.5C26.8334 504 26.1001 503 24.5001 503H20.5001H17.5001C15.0001 503 9.00008 499.5 8.00008 499L5.00008 497.5C4.20008 497.1 2.33341 495.667 1.50008 495C1.33341 494.333 1.30008 492.9 2.50008 492.5C4.00008 492 6.50015 492 8.00008 491C10 488 11.0001 486 8.00008 485.5C5.60008 485.1 2.00003 484.667 0.5 484.5V480V477.5V475.5L2.50008 473L8.00008 471.5C13.5 470 16.0002 469.5 17.5001 469C19 468.5 19.4999 468 22 467C24.5001 466 26.0002 465.5 27.0001 464.5C28 463.5 28.5 464.5 29.5 463C30.3 461.8 31.8333 460.833 32.5 460.5C33.3334 459 35.0001 455.7 35.0001 454.5C35.0001 453 35.5 452 36.5 450.5C37.5 449 37.5 449 39 448C39.3545 447.764 39.8765 447.137 40.5 446.303L42 444L35.0001 442H33.5L32 441.5L31 440.5V439L33.5 437L36.5 436L38.5 436.5L40.5 438L43 439L44.5 440H45.1922C46.0396 439.017 46.8397 438.264 47.5001 438C49.5 437.2 53.3333 435.333 55 434.5L57 432.5V428.5L65.5 427C64.8333 424.333 63.7 418.7 64.5 417.5L66.5 414.5V413C65.7 412.6 64.1667 410.833 63.5001 410C63.0001 409.333 61.8 407.8 61 407C60.2 406.2 60 404.333 60 403.5L62 402H66.5L71 407L74.5001 410L76.5 407L80 405L82 407H82.5H83.0001ZM100.5 367.5V362.5V360.836C103.59 364.54 108.642 368.214 111.5 370L109 371.5H108L107 372C106.667 372.5 106 373.8 106 375C106 376.5 105.5 376.5 105.5 378.5C105.5 379.5 105 380 104.5 381C104.1 381.8 103.667 382 103.5 382H102.5H101.5C101.333 381.5 100.9 380.4 100.5 380C100.1 379.6 100.333 378.5 100.5 378C100.5 377.5 100.7 376.3 101.5 375.5C102.3 374.7 101.833 373.833 101.5 373.5V370.5C101.167 369.833 100.5 368.3 100.5 367.5ZM174.5 15.5C174.5 17.1 171.833 19.1667 170.5 20C169.914 19.8048 169.498 19.7027 169.209 19.6618C169.198 19.618 169.184 19.5704 169.166 19.5187C169.03 19.1214 168.69 18.4856 168 17.5C165.2 13.5 167.833 8.5 169.5 6.5L172.5 6C173 6 174.1 6.4 174.5 8C175 10 174.5 13.5 174.5 15.5Z" fill="#D9D9D9"/>
</svg>
